<?xml version="1.0" encoding="UTF-8"?>
<svg width="790px" height="250px" viewBox="0 0 790 250" version="1.1" xmlns="http://www.w3.org/2000/svg" xmlns:xlink="http://www.w3.org/1999/xlink">
    <title>logo-full-h-color</title>
    <defs>
        <linearGradient x1="69.4441235%" y1="16.2191526%" x2="31.3372405%" y2="88.3232449%" id="linearGradient-1">
            <stop stop-color="#3566E3" offset="0%"></stop>
            <stop stop-color="#3B63E3" offset="21%"></stop>
            <stop stop-color="#4D59E3" offset="48%"></stop>
            <stop stop-color="#6949E4" offset="81%"></stop>
            <stop stop-color="#7E3EE4" offset="100%"></stop>
        </linearGradient>
        <linearGradient x1="46.2847937%" y1="46.2106123%" x2="55.9277563%" y2="54.3939013%" id="linearGradient-2">
            <stop stop-color="#3566E3" offset="0%"></stop>
            <stop stop-color="#3B63E3" offset="21%"></stop>
            <stop stop-color="#4D59E3" offset="48%"></stop>
            <stop stop-color="#6949E4" offset="81%"></stop>
            <stop stop-color="#7E3EE4" offset="100%"></stop>
        </linearGradient>
        <path d="M297.9375,152.913462 L329.648438,93.2884615 L313.722656,93.2884615 L297.9375,122.960337 L282.152344,93.2884615 L266.226562,93.2884615 L297.9375,152.913462 Z M371.765625,149.538462 C383.484375,149.538462 389.34375,143.679087 389.34375,131.960337 L389.34375,131.960337 L389.34375,110.866587 C389.34375,99.1478365 383.484375,93.2884615 371.765625,93.2884615 L371.765625,93.2884615 L350.671875,93.2884615 C338.953125,93.2884615 333.09375,99.1478365 333.09375,110.866587 L333.09375,110.866587 L333.09375,131.960337 C333.09375,143.679087 338.953125,149.538462 350.671875,149.538462 L350.671875,149.538462 L371.765625,149.538462 Z M371.765625,135.475962 L350.671875,135.475962 C348.328125,135.475962 347.15625,134.304087 347.15625,131.960337 L347.15625,131.960337 L347.15625,110.866587 C347.15625,108.522837 348.328125,107.350962 350.671875,107.350962 L350.671875,107.350962 L371.765625,107.350962 C374.109375,107.350962 375.28125,108.522837 375.28125,110.866587 L375.28125,110.866587 L375.28125,131.960337 C375.28125,134.304087 374.109375,135.475962 371.765625,135.475962 L371.765625,135.475962 Z M452.625,149.538462 L452.625,135.475962 L410.4375,135.475962 L410.4375,93.2884615 L396.375,93.2884615 L396.375,149.538462 L452.625,149.538462 Z M471.996094,149.538462 L475.722656,142.507212 L499.839844,142.507212 L503.566406,149.538462 L519.492188,149.538462 L487.78125,89.9134615 L456.070312,149.538462 L471.996094,149.538462 Z M492.351562,128.444712 L483.210938,128.444712 L487.78125,119.866587 L492.351562,128.444712 Z M544.03125,149.538462 L544.03125,107.350962 L565.125,107.350962 L565.125,93.2884615 L508.875,93.2884615 L508.875,107.350962 L529.96875,107.350962 L529.96875,149.538462 L544.03125,149.538462 Z M586.21875,149.538462 L586.21875,93.2884615 L572.15625,93.2884615 L572.15625,149.538462 L586.21875,149.538462 Z M649.5,149.538462 L649.5,135.475962 L607.3125,135.475962 L607.3125,93.2884615 L593.25,93.2884615 L593.25,149.538462 L649.5,149.538462 Z M670.59375,149.538462 L670.59375,93.2884615 L656.53125,93.2884615 L656.53125,149.538462 L670.59375,149.538462 Z M712.78125,149.538462 L712.78125,107.350962 L733.875,107.350962 L733.875,93.2884615 L677.625,93.2884615 L677.625,107.350962 L698.71875,107.350962 L698.71875,149.538462 L712.78125,149.538462 Z M776.0625,149.538462 L776.0625,123.839243 L800.671875,93.2884615 L782.636719,93.2884615 L768.996094,110.233774 L755.355469,93.2884615 L737.320312,93.2884615 L762,123.909555 L762,149.538462 L776.0625,149.538462 Z M299.115234,224.538462 L299.115234,203.444712 L323.724609,203.444712 C335.443359,203.444712 341.302734,197.585337 341.302734,185.866587 C341.302734,174.147837 335.443359,168.288462 323.724609,168.288462 L323.724609,168.288462 L285.052734,168.288462 L285.052734,224.538462 L299.115234,224.538462 Z M323.724609,189.382212 L299.115234,189.382212 L299.115234,182.350962 L323.724609,182.350962 C326.068359,182.350962 327.240234,183.522837 327.240234,185.866587 C327.240234,188.210337 326.068359,189.382212 323.724609,189.382212 L323.724609,189.382212 Z M362.396484,224.538462 L362.396484,203.444712 L368.654297,203.444712 L389.748047,224.538462 L409.576172,224.538462 L388.447266,203.409555 C399.205078,202.940805 404.583984,197.093149 404.583984,185.866587 C404.583984,174.147837 398.724609,168.288462 387.005859,168.288462 L387.005859,168.288462 L348.333984,168.288462 L348.333984,224.538462 L362.396484,224.538462 Z M387.005859,189.382212 L362.396484,189.382212 L362.396484,182.350962 L387.005859,182.350962 C389.349609,182.350962 390.521484,183.522837 390.521484,185.866587 C390.521484,188.210337 389.349609,189.382212 387.005859,189.382212 L387.005859,189.382212 Z M447.931641,224.538462 C459.650391,224.538462 465.509766,218.679087 465.509766,206.960337 L465.509766,206.960337 L465.509766,185.866587 C465.509766,174.147837 459.650391,168.288462 447.931641,168.288462 L447.931641,168.288462 L426.837891,168.288462 C415.119141,168.288462 409.259766,174.147837 409.259766,185.866587 L409.259766,185.866587 L409.259766,206.960337 C409.259766,218.679087 415.119141,224.538462 426.837891,224.538462 L426.837891,224.538462 L447.931641,224.538462 Z M447.931641,210.475962 L426.837891,210.475962 C424.494141,210.475962 423.322266,209.304087 423.322266,206.960337 L423.322266,206.960337 L423.322266,185.866587 C423.322266,183.522837 424.494141,182.350962 426.837891,182.350962 L426.837891,182.350962 L447.931641,182.350962 C450.275391,182.350962 451.447266,183.522837 451.447266,185.866587 L451.447266,185.866587 L451.447266,206.960337 C451.447266,209.304087 450.275391,210.475962 447.931641,210.475962 L447.931641,210.475962 Z M507.697266,224.538462 L507.697266,182.350962 L528.791016,182.350962 L528.791016,168.288462 L472.541016,168.288462 L472.541016,182.350962 L493.634766,182.350962 L493.634766,224.538462 L507.697266,224.538462 Z M574.494141,224.538462 C586.212891,224.538462 592.072266,218.679087 592.072266,206.960337 L592.072266,206.960337 L592.072266,185.866587 C592.072266,174.147837 586.212891,168.288462 574.494141,168.288462 L574.494141,168.288462 L553.400391,168.288462 C541.681641,168.288462 535.822266,174.147837 535.822266,185.866587 L535.822266,185.866587 L535.822266,206.960337 C535.822266,218.679087 541.681641,224.538462 553.400391,224.538462 L553.400391,224.538462 L574.494141,224.538462 Z M574.494141,210.475962 L553.400391,210.475962 C551.056641,210.475962 549.884766,209.304087 549.884766,206.960337 L549.884766,206.960337 L549.884766,185.866587 C549.884766,183.522837 551.056641,182.350962 553.400391,182.350962 L553.400391,182.350962 L574.494141,182.350962 C576.837891,182.350962 578.009766,183.522837 578.009766,185.866587 L578.009766,185.866587 L578.009766,206.960337 C578.009766,209.304087 576.837891,210.475962 574.494141,210.475962 L574.494141,210.475962 Z M637.775391,224.538462 C649.494141,224.538462 655.353516,218.679087 655.353516,206.960337 L655.353516,206.960337 L655.353516,203.444712 L641.291016,199.929087 L641.291016,206.960337 C641.291016,209.304087 640.119141,210.475962 637.775391,210.475962 L637.775391,210.475962 L616.681641,210.475962 C614.337891,210.475962 613.166016,209.304087 613.166016,206.960337 L613.166016,206.960337 L613.166016,185.866587 C613.166016,183.522837 614.337891,182.350962 616.681641,182.350962 L616.681641,182.350962 L637.775391,182.350962 C640.119141,182.350962 641.291016,183.522837 641.291016,185.866587 L641.291016,185.866587 L641.291016,192.897837 L655.353516,189.382212 L655.353516,185.866587 C655.353516,174.147837 649.494141,168.288462 637.775391,168.288462 L637.775391,168.288462 L616.681641,168.288462 C604.962891,168.288462 599.103516,174.147837 599.103516,185.866587 L599.103516,185.866587 L599.103516,206.960337 C599.103516,218.679087 604.962891,224.538462 616.681641,224.538462 L616.681641,224.538462 L637.775391,224.538462 Z M701.056641,224.538462 C712.775391,224.538462 718.634766,218.679087 718.634766,206.960337 L718.634766,206.960337 L718.634766,185.866587 C718.634766,174.147837 712.775391,168.288462 701.056641,168.288462 L701.056641,168.288462 L679.962891,168.288462 C668.244141,168.288462 662.384766,174.147837 662.384766,185.866587 L662.384766,185.866587 L662.384766,206.960337 C662.384766,218.679087 668.244141,224.538462 679.962891,224.538462 L679.962891,224.538462 L701.056641,224.538462 Z M701.056641,210.475962 L679.962891,210.475962 C677.619141,210.475962 676.447266,209.304087 676.447266,206.960337 L676.447266,206.960337 L676.447266,185.866587 C676.447266,183.522837 677.619141,182.350962 679.962891,182.350962 L679.962891,182.350962 L701.056641,182.350962 C703.400391,182.350962 704.572266,183.522837 704.572266,185.866587 L704.572266,185.866587 L704.572266,206.960337 C704.572266,209.304087 703.400391,210.475962 701.056641,210.475962 L701.056641,210.475962 Z M781.916016,224.538462 L781.916016,210.475962 L739.728516,210.475962 L739.728516,168.288462 L725.666016,168.288462 L725.666016,224.538462 L781.916016,224.538462 Z" id="path-3"></path>
    </defs>
    <g id="logo-full-h-color" stroke="none" stroke-width="1" fill="none" fill-rule="evenodd">
        <g id="Group" transform="translate(-47.000000, -34.000000)" fill-rule="nonzero">
            <g id="logo_lt" transform="translate(0.192308, 0.000000)" fill="url(#linearGradient-1)">
                <path d="M140.965153,162.790781 L89.8076923,162.790781 L135.361211,117.684464 L160.845396,143.088779 L140.965153,162.790781 Z M164.515462,191.276734 L141.755893,168.672358 L90.6929777,168.672358 L164.515462,242 L238.337947,168.680894 L187.275031,168.680894 L164.515462,191.276734 Z M239.807692,162.790781 L153.427908,77 L127.900748,102.353096 L188.744777,162.790781 L239.807692,162.790781 Z" id="Shape"></path>
            </g>
            <g id="VolatilityProtocol">
                <use fill="#FFFFFF" xlink:href="#path-3"></use>
                <use fill="url(#linearGradient-2)" xlink:href="#path-3"></use>
            </g>
        </g>
    </g>
</svg>